<?xml version="1.0" encoding="utf-8"?>
<!-- Generator: Adobe Illustrator 26.3.1, SVG Export Plug-In . SVG Version: 6.00 Build 0)  -->
<svg version="1.1" id="Layer_1" xmlns="http://www.w3.org/2000/svg" xmlns:xlink="http://www.w3.org/1999/xlink" x="0px" y="0px"
	 viewBox="0 0 437.07 268.1" style="enable-background:new 0 0 437.07 268.1;" xml:space="preserve">
<style type="text/css">
	.st0{fill:#1D6DB5;}
	.st1{fill:#5D9255;}
	.st2{fill:#A49E51;}
	.st3{fill:#E7993D;}
	.st4{fill:#C75335;}
	.st5{fill:#70B65A;}
	.st6{fill:#9FC758;}
	.st7{fill:#DDCB47;}
</style>
<g>
	<g>
		<path class="st0" d="M43.36,153.53l20.11,44.25l19.25-44.25h23.85l-43.82,95.82H38.91l13.94-27.58l-34.19-68.24H43.36z"/>
		<path class="st0" d="M157.28,172.2v77.15h-22.12V172.2h-20.83v-18.68h63.79v18.68H157.28z"/>
		<path class="st0" d="M246.63,172.2H214.6v18.53h30.46v18.68H214.6v21.26h32.04v18.68h-54.16v-95.82h54.16V172.2z"/>
		<path class="st0" d="M300.93,172.2v77.15h-22.12V172.2h-20.83v-18.68h63.79v18.68H300.93z"/>
	</g>
</g>
<circle class="st0" cx="290.57" cy="140.48" r="13.34"/>
<g>
	<path class="st1" d="M290.89,23.99l0,0.12c0,0-23.55,17.04-23.86,46.25s22.87,47.22,22.87,47.22l0-0.12
		c0,0,23.56-17.51,23.87-46.72C314.07,41.53,290.89,23.99,290.89,23.99z"/>
	<path class="st2" d="M343.45,34.15l-0.05,0.11c0,0-28.42,6.13-40.45,32.75s1.95,52.43,1.95,52.43l0.05-0.11
		c0,0,28.61-6.56,40.64-33.18S343.45,34.15,343.45,34.15z"/>
	<path class="st3" d="M382.48,59.96l-0.08,0.08c0,0-28.8-3.99-49.23,16.89s-16.15,49.91-16.15,49.91l0.08-0.08
		c0,0,29.12,3.65,49.55-17.22S382.48,59.96,382.48,59.96z"/>
	<path class="st4" d="M409.84,91.95l-0.1,0.06c0,0-26.41-12.14-52.01,1.93s-29.9,43.11-29.9,43.11l0.1-0.06
		c0,0,26.82,11.92,52.42-2.16S409.84,91.95,409.84,91.95z"/>
	<path class="st5" d="M240.04,34.91l0.05,0.11c0,0,28.28,6.74,39.74,33.61S276.76,121,276.76,121l-0.05-0.11
		c0,0-28.46-7.17-39.92-34.04C225.33,59.98,240.04,34.91,240.04,34.91z"/>
	<path class="st6" d="M200.46,59.88l0.08,0.09c0,0,28.87-3.37,48.86,17.93s15.08,50.25,15.08,50.25l-0.08-0.09
		c0,0-29.19,3.03-49.17-18.28S200.46,59.88,200.46,59.88z"/>
	<path class="st7" d="M172.43,91.28l0.1,0.06c0,0,26.67-11.58,51.95,3.04s28.97,43.74,28.97,43.74l-0.1-0.06
		c0,0-27.07,11.34-52.36-3.27C175.71,120.17,172.43,91.28,172.43,91.28z"/>
</g>
</svg>
