<?xml version="1.0" encoding="UTF-8" standalone="no"?>
<!-- Created with Inkscape (http://www.inkscape.org/) -->

<svg
   width="79.136665mm"
   height="75.516594mm"
   viewBox="0 0 79.136665 75.516594"
   version="1.1"
   id="svg1202"
   inkscape:version="1.2.1 (9c6d41e4, 2022-07-14)"
   sodipodi:docname="logo.svg"
   xmlns:inkscape="http://www.inkscape.org/namespaces/inkscape"
   xmlns:sodipodi="http://sodipodi.sourceforge.net/DTD/sodipodi-0.dtd"
   xmlns="http://www.w3.org/2000/svg"
   xmlns:svg="http://www.w3.org/2000/svg">
  <sodipodi:namedview
     id="namedview1204"
     pagecolor="#ffffff"
     bordercolor="#000000"
     borderopacity="0.25"
     inkscape:showpageshadow="2"
     inkscape:pageopacity="0.0"
     inkscape:pagecheckerboard="0"
     inkscape:deskcolor="#d1d1d1"
     inkscape:document-units="mm"
     showgrid="false"
     inkscape:lockguides="true"
     inkscape:zoom="0.78127806"
     inkscape:cx="-4.4798391"
     inkscape:cy="91.516713"
     inkscape:window-width="1390"
     inkscape:window-height="1027"
     inkscape:window-x="0"
     inkscape:window-y="25"
     inkscape:window-maximized="0"
     inkscape:current-layer="layer1" />
  <defs
     id="defs1199" />
  <g
     inkscape:label="Layer 1"
     inkscape:groupmode="layer"
     id="layer1"
     transform="translate(-0.29999955,-0.29999769)"
     style="display:inline">
    <g
       id="g880"
       style="display:inline"
       transform="matrix(0.35277777,0,0,-0.35277777,-27.822139,160.00133)">
      <g
         id="g18"
         transform="translate(209.9345,284.8043)">
        <path
           d="m 0,0 c -6.371,3.948 -0.311,19.966 -0.959,38.415 -0.574,16.37 -29.347,10.352 -30.825,16.562 -0.479,2.01 20.092,1.053 33.91,-3.574 24.869,4.151 30.535,16.686 30.517,12.764 C 32.585,51.499 8.272,50.653 6.388,41.176 4.174,22.006 17.262,7.419 17.262,7.419 17.262,7.419 10.774,-6.677 0,0"
           style="fill:#1b75bc;fill-opacity:1;fill-rule:nonzero;stroke:none"
           id="path20" />
      </g>
      <g
         id="g22"
         transform="translate(218.328,346.6259)">
        <path
           d="m 0,0 c 0,-3.462 -2.806,-6.268 -6.268,-6.268 -3.461,0 -6.267,2.806 -6.267,6.268 0,3.462 2.806,6.268 6.267,6.268 C -2.806,6.268 0,3.462 0,0"
           style="fill:#1b75bc;fill-opacity:1;fill-rule:nonzero;stroke:none"
           id="path24" />
      </g>
      <g
         id="g26"
         transform="translate(92.3933,334.6331)">
        <path
           d="M 0,0 9.773,-23.242 19.148,0 H 31.232 L 15.319,-36.579 c -0.705,-1.629 -1.509,-3.148 -2.41,-4.556 -0.903,-1.41 -1.981,-2.62 -3.236,-3.632 -1.254,-1.013 -2.74,-1.816 -4.457,-2.41 -1.716,-0.594 -3.742,-0.891 -6.074,-0.891 -2.07,0 -3.775,0.167 -5.117,0.498 -1.343,0.333 -2.443,0.732 -3.301,1.197 -0.859,0.465 -1.542,0.963 -2.047,1.496 -0.507,0.532 -0.958,0.997 -1.354,1.397 l 6.999,7.891 c 0.572,-0.617 1.298,-1.266 2.179,-1.948 0.88,-0.683 1.892,-1.023 3.037,-1.023 0.88,0 1.673,0.164 2.377,0.494 0.704,0.329 1.364,0.889 1.981,1.68 L -12.545,0 Z"
           style="fill:#1b75bc;fill-opacity:1;fill-rule:nonzero;stroke:none"
           id="path28" />
      </g>
      <g
         id="g30"
         transform="translate(147.7904,324.9929)">
        <path
           d="M 0,0 V -37.108 H -11.291 V 0 H -24.496 V 9.64 H 13.205 V 0 Z"
           style="fill:#1b75bc;fill-opacity:1;fill-rule:nonzero;stroke:none"
           id="path32" />
      </g>
      <g
         id="g34"
         transform="translate(166.1455,287.8853)">
        <path
           d="m 0,0 v 46.748 h 9.104 c 0,0 3.525,-2.536 13.787,-3.316 3.915,-0.297 8.387,-0.307 8.627,-2.092 0.048,-0.362 -0.089,-4.101 -0.089,-4.101 H 10.894 V 28.392 H 30.306 V 19.346 H 10.894 V 9.64 H 32.617 V 0 Z"
           style="fill:#1b75bc;fill-opacity:1;fill-rule:nonzero;stroke:none"
           id="path36" />
      </g>
      <g
         id="g38"
         transform="translate(147.7037,274.5616)">
        <path
           d="m 0,0 5.364,1.602 0.85,-1.079 -7.83,-2.134 c -0.506,-0.127 -0.894,-0.179 -1.165,-0.157 -0.271,0.021 -0.524,0.097 -0.76,0.228 -0.236,0.129 -0.47,0.342 -0.701,0.635 -0.201,0.254 -0.315,0.429 -0.342,0.522 l 0.758,0.551 0.328,-0.455 c 0.267,-0.339 0.628,-0.462 1.083,-0.369 l 0.347,0.076 0.575,0.156 3.323,6.509 0.819,-1.04 z"
           style="fill:#144359;fill-opacity:1;fill-rule:nonzero;stroke:none"
           id="path40" />
      </g>
      <g
         id="g42"
         transform="translate(151.545,268.6794)">
        <path
           d="M 0,0 -0.571,0.605 -2.635,-1.345 -3.421,-0.512 1.424,4.063 2.21,3.231 0.159,1.294 0.671,0.752 4.26,1.058 5.208,0.056 1.07,-0.227 0.515,-4.68 -0.479,-3.628 Z"
           style="fill:#144359;fill-opacity:1;fill-rule:nonzero;stroke:none"
           id="path44" />
      </g>
      <g
         id="g46"
         transform="translate(158.7258,262.5299)">
        <path
           d="M 0,0 C 0.501,0.559 0.778,1.108 0.829,1.646 0.881,2.184 0.699,2.639 0.283,3.012 -0.231,3.472 -0.82,3.588 -1.485,3.363 L -3.609,0.991 c -0.151,-0.679 0.034,-1.254 0.557,-1.722 0.407,-0.364 0.875,-0.493 1.404,-0.385 C -1.119,-1.009 -0.57,-0.636 0,0 m 0.763,-0.856 c -0.677,-0.756 -1.395,-1.21 -2.154,-1.362 -0.759,-0.153 -1.434,0.035 -2.024,0.564 -0.603,0.54 -0.906,1.155 -0.909,1.847 l -2.14,-2.39 -0.849,0.76 6.154,6.872 0.775,-0.694 -0.451,-0.587 C -0.106,4.272 0.565,4.056 1.18,3.506 1.776,2.972 2.047,2.325 1.992,1.564 1.936,0.803 1.55,0.022 0.832,-0.779 Z"
           style="fill:#144359;fill-opacity:1;fill-rule:nonzero;stroke:none"
           id="path48" />
      </g>
      <g
         id="g50"
         transform="translate(161.0964,257.4012)">
        <path
           d="m 0,0 c 0.285,-0.214 0.611,-0.345 0.978,-0.391 0.367,-0.044 0.697,0.008 0.989,0.157 L 2.791,0.857 2.078,1.395 C 0.964,2.236 0.16,2.33 -0.332,1.677 -0.547,1.392 -0.62,1.098 -0.551,0.794 -0.482,0.49 -0.298,0.225 0,0 m 0.986,-1.832 c 0.027,0.145 0.125,0.364 0.295,0.658 -0.754,-0.121 -1.424,0.04 -2.011,0.483 -0.524,0.395 -0.843,0.869 -0.955,1.418 -0.112,0.55 0.004,1.053 0.348,1.509 0.417,0.553 0.952,0.825 1.605,0.813 0.652,-0.01 1.36,-0.304 2.124,-0.88 L 3.277,1.501 3.592,1.919 C 3.831,2.237 3.927,2.562 3.88,2.894 3.831,3.225 3.622,3.531 3.252,3.811 2.928,4.056 2.594,4.179 2.251,4.18 1.907,4.183 1.648,4.067 1.473,3.834 L 0.558,4.524 C 0.758,4.79 1.046,4.974 1.421,5.08 1.796,5.185 2.2,5.188 2.631,5.089 3.063,4.99 3.472,4.794 3.859,4.503 4.472,4.041 4.836,3.525 4.953,2.956 5.069,2.388 4.931,1.83 4.539,1.282 L 2.692,-1.166 C 2.323,-1.655 2.092,-2.089 2,-2.472 L 1.94,-2.551 Z"
           style="fill:#144359;fill-opacity:1;fill-rule:nonzero;stroke:none"
           id="path52" />
      </g>
      <g
         id="g54"
         transform="translate(170.4188,260.0717)">
        <path
           d="M 0,0 C 0.103,0.155 0.236,0.254 0.401,0.298 0.565,0.343 0.74,0.304 0.925,0.18 1.11,0.058 1.215,-0.088 1.24,-0.259 1.265,-0.428 1.226,-0.591 1.124,-0.746 1.021,-0.901 0.888,-0.997 0.723,-1.037 0.559,-1.077 0.385,-1.035 0.2,-0.912 0.015,-0.79 -0.09,-0.646 -0.116,-0.48 -0.141,-0.314 -0.103,-0.154 0,0 m -2.2,1.474 c 0.103,0.155 0.236,0.253 0.399,0.296 0.164,0.042 0.338,0.002 0.523,-0.12 0.185,-0.123 0.29,-0.268 0.316,-0.436 C -0.935,1.045 -0.974,0.883 -1.076,0.729 -1.179,0.574 -1.312,0.477 -1.477,0.438 -1.641,0.398 -1.815,0.439 -2,0.561 -2.185,0.684 -2.29,0.828 -2.315,0.994 -2.341,1.159 -2.303,1.319 -2.2,1.474 m -2.561,-8.428 -0.955,0.633 3.683,5.552 0.955,-0.633 z"
           style="fill:#144359;fill-opacity:1;fill-rule:nonzero;stroke:none"
           id="path56" />
      </g>
      <g
         id="g58"
         transform="translate(172.238,249.1644)">
        <path
           d="M 0,0 -0.987,0.568 0.433,3.033 -2.219,4.561 -3.639,2.096 -4.632,2.668 -1.306,8.442 -0.313,7.869 -1.755,5.367 0.897,3.839 2.339,6.342 3.326,5.774 Z"
           style="fill:#144359;fill-opacity:1;fill-rule:nonzero;stroke:none"
           id="path60" />
      </g>
      <g
         id="g62"
         transform="translate(177.0432,247.7067)"
         style="display:inline">
        <path
           d="m 0,0 c 0.368,-0.172 0.742,-0.212 1.122,-0.117 0.379,0.094 0.662,0.301 0.849,0.622 L 2.947,0.048 c -0.181,-0.337 -0.454,-0.61 -0.82,-0.82 -0.365,-0.21 -0.775,-0.321 -1.228,-0.336 -0.453,-0.014 -0.885,0.075 -1.293,0.266 -0.822,0.385 -1.347,0.965 -1.575,1.741 -0.228,0.776 -0.12,1.64 0.326,2.591 l 0.081,0.173 c 0.275,0.588 0.628,1.059 1.058,1.416 0.43,0.355 0.905,0.566 1.427,0.629 C 1.445,5.772 1.981,5.676 2.531,5.418 3.208,5.1 3.675,4.635 3.934,4.019 4.192,3.404 4.184,2.766 3.911,2.105 L 2.935,2.563 C 3.088,2.967 3.09,3.357 2.942,3.733 2.794,4.108 2.525,4.387 2.134,4.57 1.61,4.816 1.115,4.817 0.651,4.574 0.186,4.332 -0.214,3.854 -0.548,3.141 L -0.64,2.946 C -0.965,2.25 -1.073,1.647 -0.963,1.138 -0.853,0.629 -0.532,0.249 0,0"
           style="fill:#144359;fill-opacity:1;fill-rule:nonzero;stroke:none"
           id="path64" />
      </g>
      <g
         id="g66"
         transform="translate(183.087,247.9733)">
        <path
           d="m 0,0 -0.873,-2.349 1.587,-0.59 c 0.401,-0.149 0.749,-0.161 1.045,-0.036 0.295,0.123 0.51,0.365 0.643,0.723 0.129,0.346 0.127,0.67 -0.004,0.97 -0.131,0.301 -0.388,0.526 -0.77,0.677 z M 0.324,0.872 1.946,0.269 C 2.651,-0.001 3.143,-0.395 3.42,-0.909 3.697,-1.424 3.721,-1.991 3.491,-2.611 3.259,-3.234 2.861,-3.656 2.298,-3.875 1.734,-4.096 1.095,-4.072 0.379,-3.806 l -2.644,0.982 2.321,6.246 1.068,-0.397 z"
           style="fill:#144359;fill-opacity:1;fill-rule:nonzero;stroke:none"
           id="path68" />
      </g>
      <g
         id="g70"
         transform="translate(190.3859,244.8979)">
        <path
           d="m 0,0 -0.801,0.223 -0.763,-2.734 -1.103,0.308 1.79,6.417 L 0.227,3.907 -0.531,1.19 0.187,0.99 3.104,3.104 4.432,2.734 1.033,0.357 2.855,-3.744 1.461,-3.355 Z"
           style="fill:#144359;fill-opacity:1;fill-rule:nonzero;stroke:none"
           id="path72" />
      </g>
      <g
         id="g74"
         transform="translate(198.3217,246.1092)">
        <path
           d="m 0,0 c -0.451,0.087 -0.862,-0.005 -1.232,-0.275 -0.369,-0.269 -0.647,-0.694 -0.834,-1.273 l 3.279,-0.629 0.016,0.085 c 0.077,0.575 0.008,1.044 -0.206,1.41 C 0.809,-0.317 0.468,-0.09 0,0 m -0.987,-5.893 c -0.887,0.17 -1.553,0.6 -1.998,1.29 -0.444,0.689 -0.573,1.522 -0.385,2.498 l 0.039,0.205 c 0.125,0.649 0.36,1.204 0.706,1.667 0.346,0.463 0.769,0.795 1.27,0.998 0.501,0.203 1.012,0.254 1.532,0.154 0.85,-0.163 1.457,-0.571 1.822,-1.221 0.364,-0.651 0.445,-1.499 0.245,-2.543 L 2.155,-3.311 -2.278,-2.46 c -0.108,-0.648 -0.02,-1.205 0.265,-1.672 0.284,-0.466 0.705,-0.753 1.262,-0.86 0.395,-0.075 0.744,-0.059 1.05,0.049 0.305,0.109 0.586,0.277 0.843,0.503 l 0.581,-0.663 c -0.71,-0.737 -1.614,-1.001 -2.71,-0.79"
           style="fill:#144359;fill-opacity:1;fill-rule:nonzero;stroke:none"
           id="path76" />
      </g>
      <g
         id="g78"
         transform="translate(210.3331,244.574)">
        <path
           d="m 0,0 -2.229,0.166 -0.426,-5.724 -1.137,0.085 0.427,5.724 -2.187,0.163 0.069,0.921 5.552,-0.414 z"
           style="fill:#144359;fill-opacity:1;fill-rule:nonzero;stroke:none"
           id="path80" />
      </g>
      <g
         id="g82"
         transform="translate(212.3131,242.0397)">
        <path
           d="m 0,0 c 0.012,-0.739 0.193,-1.329 0.543,-1.771 0.35,-0.442 0.812,-0.658 1.387,-0.649 0.578,0.01 1.035,0.244 1.368,0.703 0.333,0.459 0.493,1.097 0.48,1.914 C 3.766,0.927 3.583,1.517 3.229,1.965 2.875,2.413 2.41,2.632 1.836,2.623 1.273,2.614 0.823,2.383 0.485,1.929 0.149,1.477 -0.014,0.833 0,0 M -1.148,0.117 C -1.158,0.769 -1.04,1.358 -0.792,1.884 -0.543,2.41 -0.193,2.818 0.26,3.108 0.714,3.399 1.233,3.549 1.821,3.559 2.728,3.573 3.467,3.271 4.037,2.652 4.608,2.034 4.901,1.203 4.918,0.16 L 4.919,0.08 C 4.93,-0.569 4.815,-1.153 4.575,-1.672 4.335,-2.191 3.987,-2.598 3.53,-2.893 3.073,-3.188 2.544,-3.34 1.945,-3.349 c -0.903,-0.016 -1.64,0.287 -2.211,0.906 -0.57,0.619 -0.863,1.445 -0.881,2.48 z"
           style="fill:#144359;fill-opacity:1;fill-rule:nonzero;stroke:none"
           id="path84" />
      </g>
      <g
         id="g86"
         transform="translate(220.1087,241.9571)">
        <path
           d="m 0,0 0.183,-1.999 1.876,0.172 c 0.475,0.043 0.821,0.163 1.04,0.361 0.219,0.197 0.314,0.455 0.285,0.774 -0.061,0.662 -0.577,0.948 -1.55,0.86 z M -0.083,0.908 1.382,1.042 C 2.445,1.139 2.949,1.498 2.891,2.12 2.835,2.741 2.302,3.016 1.295,2.944 L -0.256,2.803 Z M -0.869,-3.017 -1.475,3.619 1.113,3.856 C 1.996,3.936 2.688,3.844 3.189,3.578 3.688,3.313 3.966,2.881 4.021,2.285 4.048,1.978 3.982,1.692 3.821,1.429 3.659,1.164 3.404,0.951 3.057,0.787 3.466,0.73 3.805,0.575 4.073,0.323 4.341,0.072 4.493,-0.245 4.528,-0.625 4.584,-1.234 4.402,-1.721 3.984,-2.084 3.566,-2.448 2.948,-2.668 2.13,-2.742 Z"
           style="fill:#144359;fill-opacity:1;fill-rule:nonzero;stroke:none"
           id="path88" />
      </g>
      <g
         id="g90"
         transform="translate(228.8171,240.9762)">
        <path
           d="M 0,0 C 0.351,0.062 0.669,0.213 0.952,0.451 1.235,0.689 1.421,0.966 1.51,1.283 L 1.27,2.628 0.391,2.472 C -0.983,2.226 -1.598,1.702 -1.455,0.898 -1.392,0.546 -1.226,0.292 -0.956,0.135 -0.687,-0.02 -0.368,-0.066 0,0 M 2.013,-0.523 C 1.926,-0.405 1.832,-0.184 1.733,0.14 1.308,-0.495 0.734,-0.876 0.01,-1.006 c -0.646,-0.115 -1.209,-0.026 -1.689,0.266 -0.479,0.291 -0.769,0.718 -0.87,1.28 -0.121,0.683 0.044,1.26 0.496,1.731 0.451,0.47 1.148,0.789 2.09,0.957 L 1.128,3.423 1.036,3.938 C 0.966,4.33 0.793,4.622 0.517,4.812 0.242,5.003 -0.125,5.057 -0.581,4.976 -0.982,4.904 -1.299,4.743 -1.534,4.493 -1.768,4.243 -1.86,3.974 -1.809,3.687 L -2.936,3.486 c -0.059,0.327 10e-4,0.664 0.179,1.011 0.178,0.346 0.45,0.644 0.816,0.893 0.367,0.249 0.788,0.416 1.265,0.501 C 0.08,6.026 0.706,5.942 1.202,5.641 1.697,5.34 2.013,4.858 2.147,4.199 L 2.686,1.179 C 2.793,0.577 2.955,0.112 3.173,-0.216 L 3.19,-0.313 Z"
           style="fill:#144359;fill-opacity:1;fill-rule:nonzero;stroke:none"
           id="path92" />
      </g>
      <g
         id="g94"
         transform="translate(237.4502,245.5419)">
        <path
           d="M 0,0 C -0.194,0.726 -0.503,1.258 -0.924,1.595 -1.347,1.932 -1.827,2.029 -2.366,1.884 -3.033,1.706 -3.453,1.277 -3.628,0.596 l 0.823,-3.075 c 0.487,-0.499 1.069,-0.657 1.747,-0.475 0.528,0.141 0.891,0.462 1.091,0.965 C 0.232,-1.488 0.221,-0.824 0,0 m 1.134,0.17 c 0.262,-0.979 0.25,-1.829 -0.038,-2.548 -0.288,-0.718 -0.814,-1.181 -1.58,-1.386 -0.781,-0.208 -1.462,-0.126 -2.043,0.25 l 0.83,-3.099 -1.1,-0.295 -2.387,8.911 1.005,0.269 0.245,-0.699 c 0.299,0.675 0.848,1.119 1.645,1.333 0.773,0.207 1.462,0.08 2.069,-0.383 C 0.386,2.06 0.828,1.31 1.107,0.271 Z"
           style="fill:#144359;fill-opacity:1;fill-rule:nonzero;stroke:none"
           id="path96" />
      </g>
      <g
         id="g98"
         transform="translate(243.0578,250.8981)">
        <path
           d="m 0,0 1.071,0.391 2.283,-6.26 -1.07,-0.391 -1.665,4.565 -1.222,-5.618 -1.07,-0.391 -2.283,6.26 1.07,0.391 1.667,-4.571 z"
           style="fill:#144359;fill-opacity:1;fill-rule:nonzero;stroke:none"
           id="path100" />
      </g>
      <g
         id="g102"
         transform="translate(250.6121,247.7719)">
        <path
           d="M 0,0 C 0.369,0.171 0.639,0.433 0.811,0.784 0.982,1.135 1.006,1.485 0.88,1.834 L 1.858,2.288 C 2,1.933 2.034,1.548 1.959,1.133 1.884,0.719 1.707,0.333 1.427,-0.024 1.146,-0.38 0.801,-0.654 0.391,-0.843 -0.432,-1.225 -1.214,-1.255 -1.955,-0.931 -2.695,-0.607 -3.287,0.031 -3.73,0.985 l -0.08,0.173 c -0.273,0.588 -0.408,1.162 -0.404,1.72 0.003,0.558 0.148,1.057 0.434,1.499 0.287,0.44 0.706,0.789 1.257,1.044 0.678,0.315 1.336,0.374 1.972,0.176 C 0.086,5.399 0.57,4.983 0.901,4.349 L -0.077,3.896 C -0.288,4.272 -0.585,4.525 -0.968,4.653 -1.351,4.781 -1.738,4.753 -2.129,4.572 -2.654,4.329 -2.973,3.951 -3.086,3.439 -3.199,2.927 -3.09,2.313 -2.758,1.598 l 0.09,-0.195 C -2.344,0.706 -1.952,0.237 -1.491,-0.006 -1.03,-0.249 -0.533,-0.247 0,0"
           style="fill:#144359;fill-opacity:1;fill-rule:nonzero;stroke:none"
           id="path104" />
      </g>
      <g
         id="g106"
         transform="translate(256.3842,256.3956)">
        <path
           d="m 0,0 -1.95,-1.095 2.811,-5.004 -0.993,-0.558 -2.811,5.004 -1.911,-1.074 -0.452,0.806 4.853,2.726 z"
           style="fill:#144359;fill-opacity:1;fill-rule:nonzero;stroke:none"
           id="path108" />
      </g>
      <g
         id="g110"
         transform="translate(259.9306,255.3393)">
        <path
           d="m 0,0 1.121,-1.666 1.563,1.052 C 3.079,-0.348 3.325,-0.075 3.423,0.203 3.52,0.481 3.479,0.753 3.3,1.019 2.929,1.571 2.338,1.574 1.527,1.028 Z M -0.509,0.756 0.712,1.578 C 1.598,2.173 1.866,2.731 1.517,3.249 1.169,3.766 0.57,3.751 -0.279,3.204 l -1.292,-0.87 z m 1.197,-3.819 -3.721,5.528 2.156,1.451 C -0.141,4.411 0.51,4.662 1.077,4.67 1.643,4.677 2.094,4.432 2.428,3.935 2.6,3.68 2.678,3.398 2.664,3.089 2.649,2.779 2.529,2.469 2.303,2.159 2.689,2.305 3.061,2.332 3.417,2.241 3.773,2.149 4.058,1.945 4.271,1.628 4.613,1.12 4.687,0.606 4.495,0.086 4.304,-0.434 3.867,-0.923 3.186,-1.382 Z"
           style="fill:#144359;fill-opacity:1;fill-rule:nonzero;stroke:none"
           id="path112" />
      </g>
      <g
         id="g114"
         transform="translate(265.4657,259.6551)">
        <path
           d="M 0,0 C 0.464,-0.575 0.97,-0.928 1.518,-1.061 2.066,-1.194 2.563,-1.079 3.01,-0.718 3.461,-0.354 3.676,0.111 3.656,0.678 3.636,1.245 3.37,1.846 2.856,2.481 2.397,3.05 1.889,3.402 1.335,3.537 0.78,3.672 0.279,3.559 -0.168,3.197 -0.606,2.844 -0.818,2.385 -0.805,1.82 -0.793,1.255 -0.524,0.648 0,0 m -0.977,-0.614 c -0.41,0.507 -0.678,1.045 -0.807,1.612 -0.128,0.566 -0.103,1.104 0.075,1.612 0.178,0.508 0.495,0.947 0.953,1.315 0.705,0.57 1.473,0.787 2.304,0.651 C 2.379,4.44 3.122,3.966 3.777,3.154 L 3.828,3.092 C 4.235,2.588 4.504,2.057 4.635,1.5 4.765,0.943 4.741,0.408 4.562,-0.106 4.384,-0.619 4.062,-1.065 3.595,-1.442 2.892,-2.009 2.126,-2.225 1.295,-2.088 c -0.831,0.136 -1.571,0.607 -2.221,1.411 z"
           style="fill:#144359;fill-opacity:1;fill-rule:nonzero;stroke:none"
           id="path116" />
      </g>
      <g
         id="g118"
         transform="translate(272.815,269.7321)">
        <path
           d="m 0,0 c -0.32,-0.33 -0.469,-0.724 -0.446,-1.181 0.024,-0.457 0.226,-0.922 0.608,-1.395 L 2.485,-0.179 2.423,-0.12 C 1.984,0.26 1.554,0.46 1.132,0.481 0.709,0.502 0.331,0.342 0,0 M 4.388,-4.056 C 3.759,-4.704 3.035,-5.026 2.215,-5.02 c -0.82,0.007 -1.588,0.355 -2.301,1.047 l -0.15,0.146 c -0.475,0.46 -0.811,0.961 -1.008,1.504 -0.197,0.542 -0.243,1.078 -0.138,1.609 0.105,0.529 0.341,0.985 0.71,1.365 0.602,0.622 1.276,0.907 2.02,0.855 C 2.092,1.453 2.847,1.058 3.609,0.317 L 3.95,-0.012 0.809,-3.254 c 0.483,-0.445 0.997,-0.677 1.543,-0.694 0.547,-0.018 1.017,0.177 1.411,0.583 0.28,0.29 0.459,0.591 0.535,0.906 0.076,0.314 0.09,0.641 0.041,0.98 l 0.874,0.123 C 5.44,-2.354 5.165,-3.254 4.388,-4.056"
           style="fill:#144359;fill-opacity:1;fill-rule:nonzero;stroke:none"
           id="path120" />
      </g>
      <g
         id="g122"
         transform="translate(280.3294,274.5819)">
        <path
           d="M 0,0 C -0.581,0.477 -1.142,0.729 -1.681,0.757 -2.221,0.785 -2.668,0.584 -3.021,0.152 -3.459,-0.382 -3.55,-0.975 -3.296,-1.63 l 2.462,-2.019 c 0.686,-0.121 1.251,0.089 1.697,0.632 0.346,0.422 0.453,0.895 0.323,1.419 C 1.056,-1.074 0.66,-0.541 0,0 M 0.822,0.799 C 1.606,0.156 2.091,-0.541 2.276,-1.293 2.461,-2.045 2.302,-2.727 1.8,-3.34 1.287,-3.965 0.685,-4.295 -0.005,-4.328 l 2.481,-2.035 -0.723,-0.88 -7.133,5.849 0.66,0.804 0.606,-0.425 c -0.15,0.723 0.037,1.404 0.56,2.042 0.508,0.619 1.142,0.918 1.904,0.895 C -0.887,1.9 -0.091,1.548 0.741,0.866 Z"
           style="fill:#144359;fill-opacity:1;fill-rule:nonzero;stroke:none"
           id="path124" />
      </g>
      <g
         id="g126"
         transform="translate(282.5573,281.6428)">
        <path
           d="M 0,0 -1.765,-2.515 2.918,-5.802 2.26,-6.74 l -5.454,3.828 2.423,3.453 z"
           style="fill:#144359;fill-opacity:1;fill-rule:nonzero;stroke:none"
           id="path128" />
      </g>
      <g
         id="g130"
         transform="translate(285.648,281.9312)"
         style="display:inline">
        <path
           d="m 0,0 c 0.635,-0.377 1.232,-0.533 1.792,-0.467 0.56,0.066 0.987,0.346 1.281,0.84 C 3.368,0.871 3.408,1.382 3.192,1.907 2.976,2.431 2.518,2.902 1.815,3.32 1.187,3.693 0.589,3.846 0.022,3.78 -0.546,3.714 -0.976,3.433 -1.269,2.939 -1.557,2.456 -1.596,1.951 -1.387,1.427 -1.179,0.901 -0.717,0.426 0,0 m -0.702,-0.915 c -0.561,0.333 -1.001,0.743 -1.317,1.23 -0.318,0.487 -0.481,1 -0.491,1.538 -0.009,0.539 0.136,1.059 0.436,1.564 0.463,0.781 1.108,1.251 1.934,1.412 C 0.687,4.99 1.548,4.803 2.444,4.271 L 2.513,4.23 C 3.071,3.898 3.508,3.494 3.824,3.018 4.14,2.541 4.303,2.031 4.314,1.487 4.326,0.943 4.178,0.414 3.872,-0.101 3.41,-0.878 2.767,-1.347 1.94,-1.508 1.114,-1.669 0.256,-1.484 -0.633,-0.956 Z"
           style="fill:#144359;fill-opacity:1;fill-rule:nonzero;stroke:none"
           id="path132" />
      </g>
      <g
         id="g134"
         transform="translate(288.8531,293.1427)">
        <path
           d="M 0,0 -0.984,-2.008 4.171,-4.532 3.67,-5.555 -1.484,-3.031 -2.449,-5 -3.278,-4.593 -0.83,0.406 Z"
           style="fill:#144359;fill-opacity:1;fill-rule:nonzero;stroke:none"
           id="path136" />
      </g>
      <g
         id="g138"
         transform="translate(290.1551,296.6435)">
        <path
           d="m 0,0 c -0.17,-0.427 -0.156,-0.848 0.04,-1.261 0.196,-0.414 0.561,-0.766 1.095,-1.057 l 1.23,3.103 -0.08,0.032 C 1.734,0.999 1.261,1.019 0.861,0.877 0.463,0.735 0.176,0.443 0,0 M 5.605,-2.071 C 5.272,-2.91 4.726,-3.484 3.965,-3.792 3.205,-4.1 2.363,-4.071 1.44,-3.704 l -0.195,0.076 c -0.615,0.245 -1.117,0.579 -1.507,1.005 -0.389,0.426 -0.636,0.905 -0.742,1.435 -0.106,0.529 -0.061,1.041 0.134,1.533 0.319,0.805 0.833,1.326 1.54,1.562 0.708,0.236 1.556,0.159 2.545,-0.233 L 3.655,1.498 1.991,-2.697 c 0.617,-0.228 1.181,-0.244 1.692,-0.052 0.512,0.192 0.872,0.552 1.081,1.078 0.148,0.375 0.197,0.722 0.147,1.041 -0.05,0.321 -0.161,0.628 -0.337,0.923 L 5.335,0.74 c 0.592,-0.836 0.682,-1.772 0.27,-2.811"
           style="fill:#144359;fill-opacity:1;fill-rule:nonzero;stroke:none"
           id="path140" />
      </g>
      <g
         id="g142"
         transform="translate(295.2388,303.9993)">
        <path
           d="m 0,0 c -0.719,0.217 -1.334,0.235 -1.842,0.055 -0.51,-0.181 -0.845,-0.538 -1.007,-1.073 -0.199,-0.66 -0.056,-1.244 0.43,-1.751 L 0.629,-3.69 c 0.679,0.151 1.121,0.562 1.324,1.234 0.158,0.523 0.076,1.001 -0.245,1.434 C 1.387,-0.588 0.817,-0.247 0,0 M 0.454,1.053 C 1.424,0.76 2.139,0.301 2.598,-0.322 3.057,-0.945 3.173,-1.636 2.944,-2.394 2.71,-3.169 2.28,-3.704 1.654,-3.999 l 3.072,-0.928 -0.33,-1.091 -8.831,2.668 0.301,0.996 0.724,-0.161 c -0.416,0.611 -0.505,1.311 -0.266,2.101 0.231,0.766 0.703,1.286 1.416,1.557 0.712,0.271 1.583,0.252 2.613,-0.06 z"
           style="fill:#144359;fill-opacity:1;fill-rule:nonzero;stroke:none"
           id="path144" />
      </g>
      <g
         id="g146"
         transform="translate(298.8831,308.3368)">
        <path
           d="m 0,0 c 0.074,0.35 0.054,0.7 -0.062,1.052 -0.114,0.351 -0.301,0.627 -0.56,0.83 L -1.96,2.164 -2.145,1.29 c -0.288,-1.365 -0.032,-2.133 0.767,-2.301 0.349,-0.074 0.647,-0.016 0.893,0.176 C -0.239,-0.644 -0.078,-0.365 0,0 M 1.24,1.671 C 1.098,1.634 0.858,1.629 0.52,1.659 0.949,1.027 1.087,0.351 0.935,-0.367 0.8,-1.01 0.507,-1.499 0.057,-1.834 -0.394,-2.169 -0.898,-2.277 -1.457,-2.16 c -0.679,0.144 -1.151,0.513 -1.418,1.109 -0.266,0.595 -0.301,1.361 -0.103,2.297 l 0.229,1.085 -0.513,0.108 C -3.651,2.521 -3.986,2.47 -4.267,2.286 -4.546,2.102 -4.735,1.782 -4.83,1.329 -4.914,0.931 -4.885,0.576 -4.74,0.264 c 0.144,-0.311 0.358,-0.497 0.644,-0.557 l -0.237,-1.12 c -0.326,0.068 -0.615,0.249 -0.87,0.545 -0.255,0.295 -0.429,0.659 -0.521,1.092 -0.094,0.433 -0.09,0.887 0.01,1.36 0.159,0.752 0.471,1.3 0.936,1.647 0.466,0.347 1.029,0.458 1.692,0.335 l 3,-0.633 C 0.513,2.806 1.005,2.782 1.39,2.86 L 1.487,2.839 Z"
           style="fill:#144359;fill-opacity:1;fill-rule:nonzero;stroke:none"
           id="path148" />
      </g>
      <g
         id="g150"
         transform="translate(301.3695,318.6037)">
        <path
           d="m 0,0 -0.138,-1.131 -5.679,0.696 -0.373,-3.044 5.679,-0.696 -0.14,-1.137 -6.613,0.811 0.651,5.311 z"
           style="fill:#144359;fill-opacity:1;fill-rule:nonzero;stroke:none"
           id="path152" />
      </g>
      <g
         id="g154"
         transform="translate(295.7974,323.7396)">
        <path
           d="M 0,0 C -0.017,-0.46 0.135,-0.852 0.458,-1.176 0.78,-1.5 1.242,-1.711 1.842,-1.808 L 1.968,1.528 1.882,1.531 C 1.303,1.52 0.848,1.381 0.52,1.114 0.191,0.847 0.018,0.475 0,0 M 5.975,-0.084 C 5.941,-0.987 5.616,-1.71 5.002,-2.254 4.388,-2.797 3.585,-3.051 2.592,-3.013 l -0.21,0.008 c -0.66,0.024 -1.245,0.173 -1.755,0.445 -0.509,0.272 -0.902,0.64 -1.178,1.104 -0.276,0.465 -0.404,0.962 -0.384,1.491 0.032,0.866 0.343,1.528 0.931,1.986 0.589,0.459 1.415,0.668 2.477,0.628 L 2.947,2.631 2.776,-1.88 c 0.657,-0.009 1.195,0.163 1.613,0.515 0.418,0.352 0.638,0.811 0.659,1.377 C 5.063,0.414 4.994,0.758 4.84,1.043 4.687,1.328 4.479,1.581 4.216,1.8 L 4.784,2.475 C 5.62,1.884 6.017,1.032 5.975,-0.084"
           style="fill:#144359;fill-opacity:1;fill-rule:nonzero;stroke:none"
           id="path156" />
      </g>
      <g
         id="g158"
         transform="translate(298.7563,329.1617)">
        <path
           d="M 0,0 2.005,0.091 1.921,1.973 C 1.9,2.449 1.795,2.8 1.608,3.028 1.421,3.257 1.168,3.363 0.848,3.349 0.183,3.319 -0.127,2.815 -0.083,1.84 Z m -0.91,-0.041 -0.067,1.47 C -1.025,2.495 -1.361,3.015 -1.984,2.986 -2.607,2.958 -2.907,2.439 -2.881,1.429 l 0.07,-1.556 z M 2.974,-1.006 -3.683,-1.307 -3.8,1.29 c -0.04,0.885 0.084,1.572 0.372,2.06 0.289,0.488 0.732,0.745 1.331,0.772 0.308,0.013 0.59,-0.066 0.847,-0.239 0.256,-0.174 0.457,-0.438 0.605,-0.793 0.076,0.406 0.247,0.738 0.51,0.994 C 0.129,4.34 0.451,4.477 0.833,4.495 1.444,4.522 1.922,4.319 2.266,3.884 2.61,3.45 2.801,2.823 2.838,2.002 Z"
           style="fill:#144359;fill-opacity:1;fill-rule:nonzero;stroke:none"
           id="path160" />
      </g>
      <g
         id="g162"
         transform="translate(294.9817,339.8017)">
        <path
           d="m 0,0 0.277,-2.218 5.695,0.71 0.141,-1.131 -5.695,-0.71 0.271,-2.175 -0.917,-0.115 -0.689,5.525 z"
           style="fill:#144359;fill-opacity:1;fill-rule:nonzero;stroke:none"
           id="path164" />
      </g>
      <g
         id="g166"
         transform="translate(300.1813,343.1372)">
        <path
           d="m 0,0 0.204,-1.121 -6.556,-1.191 -0.204,1.121 z m -8.075,-2.719 c -0.181,-0.033 -0.345,-0.005 -0.491,0.083 -0.145,0.089 -0.237,0.242 -0.277,0.46 -0.04,0.218 -0.007,0.395 0.098,0.531 0.104,0.136 0.247,0.22 0.429,0.253 0.182,0.033 0.344,0.004 0.485,-0.087 0.142,-0.091 0.233,-0.246 0.272,-0.463 0.04,-0.219 0.009,-0.394 -0.092,-0.528 -0.101,-0.132 -0.242,-0.216 -0.424,-0.249"
           style="fill:#144359;fill-opacity:1;fill-rule:nonzero;stroke:none"
           id="path168" />
      </g>
      <g
         id="g170"
         transform="translate(296.653,345.7874)">
        <path
           d="M 0,0 1.949,0.482 1.496,2.311 C 1.382,2.774 1.211,3.098 0.982,3.285 0.755,3.472 0.485,3.526 0.175,3.45 -0.472,3.29 -0.677,2.736 -0.442,1.787 Z M -0.885,-0.219 -1.238,1.21 C -1.495,2.246 -1.926,2.689 -2.531,2.539 -3.137,2.39 -3.328,1.822 -3.106,0.837 l 0.374,-1.513 z m 3.998,-0.185 -6.468,-1.6 -0.624,2.523 c -0.213,0.861 -0.226,1.559 -0.039,2.094 0.187,0.535 0.572,0.874 1.153,1.018 0.3,0.074 0.592,0.051 0.877,-0.069 0.285,-0.12 0.535,-0.339 0.75,-0.658 -0.005,0.413 0.096,0.771 0.305,1.074 0.208,0.303 0.498,0.501 0.869,0.592 C 0.529,4.718 1.037,4.612 1.46,4.253 1.883,3.895 2.193,3.317 2.39,2.52 Z"
           style="fill:#144359;fill-opacity:1;fill-rule:nonzero;stroke:none"
           id="path172" />
      </g>
      <g
         id="g174"
         transform="translate(234.7626,412.5077)">
        <path
           d="M 0,0 C 0,16.644 -8.31,31.346 -21.004,40.189 -33.699,31.346 -42.009,16.644 -42.009,0 c 0,-16.644 8.31,-31.346 21.005,-40.189 C -8.31,-31.346 0,-16.644 0,0"
           style="fill:#4a863d;fill-opacity:1;fill-rule:nonzero;stroke:none"
           id="path176" />
      </g>
      <g
         id="g178"
         transform="translate(259.2319,395.4218)">
        <path
           d="M 0,0 C 6.244,14.552 4.493,30.522 -3.288,43.016 -17.705,40.046 -30.484,30.31 -36.728,15.758 -42.971,1.206 -41.221,-14.764 -33.439,-27.258 -19.023,-24.288 -6.244,-14.552 0,0"
           style="fill:#99923b;fill-opacity:1;fill-rule:nonzero;stroke:none"
           id="path180" />
      </g>
      <g
         id="g182"
         transform="translate(275.005,369.6577)">
        <path
           d="M 0,0 C 10.656,9.501 15.324,23.212 13.74,36.387 0.832,39.467 -13.323,36.395 -23.979,26.894 -34.635,17.393 -39.303,3.682 -37.719,-9.493 -24.811,-12.573 -10.656,-9.501 0,0"
           style="fill:#e18a1f;fill-opacity:1;fill-rule:nonzero;stroke:none"
           id="path184" />
      </g>
      <g
         id="g186"
         transform="translate(283.3877,349.3742)">
        <path
           d="M 0,0 C 11.68,5.983 19.01,17.098 20.653,29.186 9.884,34.916 -3.42,35.462 -15.1,29.479 -26.78,23.497 -34.11,12.381 -35.753,0.294 -24.984,-5.436 -11.68,-5.983 0,0"
           style="fill:#bc3c18;fill-opacity:1;fill-rule:nonzero;stroke:none"
           id="path188" />
      </g>
      <g
         id="g190"
         transform="translate(168.049,395.4218)">
        <path
           d="M 0,0 C -6.244,14.552 -4.493,30.522 3.288,43.016 17.705,40.046 30.484,30.31 36.728,15.758 42.971,1.206 41.221,-14.764 33.439,-27.258 19.023,-24.288 6.244,-14.552 0,0"
           style="fill:#5fac46;fill-opacity:1;fill-rule:nonzero;stroke:none"
           id="path192" />
      </g>
      <g
         id="g194"
         transform="translate(152.276,369.6577)">
        <path
           d="m 0,0 c -10.656,9.501 -15.324,23.212 -13.74,36.387 12.908,3.08 27.063,0.008 37.719,-9.493 C 34.635,17.393 39.303,3.682 37.719,-9.493 24.811,-12.573 10.656,-9.501 0,0"
           style="fill:#94c93d;fill-opacity:1;fill-rule:nonzero;stroke:none"
           id="path196" />
      </g>
      <g
         id="g198"
         transform="translate(143.8933,349.3742)"
         style="display:inline">
        <path
           d="M 0,0 C -11.68,5.983 -19.01,17.098 -20.653,29.186 -9.884,34.916 3.42,35.462 15.1,29.479 26.78,23.497 34.11,12.381 35.753,0.294 24.984,-5.436 11.68,-5.983 0,0"
           style="fill:#d9c826;fill-opacity:1;fill-rule:nonzero;stroke:none"
           id="path200" />
      </g>
    </g>
  </g>
</svg>
